v 0.0 -0.007499999832361936 -0.0060000000521540624
v 0.0 0.007499999832361936 -0.0060000000521540624
v 0.0015000000130385165 -0.007499999832361936 -0.0060000000521540624
v 0.0015000000130385165 0.007499999832361936 -0.0060000000521540624
v 0.0 0.008000000379979609 -0.005499999970197677
v 0.0 0.008000000379979609 0.005499999970197677
v 0.0015000000130385165 0.008000000379979609 -0.005499999970197677
v 0.0015000000130385165 0.008000000379979609 0.005499999970197677
v 0.0 0.007499999832361936 0.0060000000521540624
v 0.0 -0.007499999832361936 0.0060000000521540624
v 0.0015000000130385165 0.007499999832361936 0.0060000000521540624
v 0.0015000000130385165 -0.007499999832361936 0.0060000000521540624
v 0.0015000000130385165 -0.008000000379979609 -0.005499999970197677
v 0.0015000000130385165 -0.008000000379979609 0.005499999970197677
v 0.0 -0.008000000379979609 -0.005499999970197677
v 0.0 -0.008000000379979609 0.005499999970197677
v 0.0015000000130385165 -0.007499999832361936 0.0060000000521540624
v 0.0015000000130385165 -0.007499999832361936 -0.0060000000521540624
v 0.0015000000130385165 0.007499999832361936 0.0060000000521540624
v 0.0015000000130385165 0.007499999832361936 -0.0060000000521540624
v 0.0015000000130385165 -0.007933013141155241 -0.00575000001117587
v 0.0015000000130385165 -0.007749999873340129 -0.005933012813329695
v 0.0015000000130385165 -0.008000000379979609 -0.005499999970197677
v 0.0015000000130385165 -0.008000000379979609 0.005499999970197677
v 0.0015000000130385165 -0.007933013141155241 0.005749999545514583
v 0.0015000000130385165 -0.007749999873340129 0.005933012813329695
v 0.0015000000130385165 0.007933012209832667 0.005749999545514583
v 0.0015000000130385165 0.007750000339001416 0.005933012813329695
v 0.0015000000130385165 0.008000000379979609 0.005499999970197677
v 0.0015000000130385165 0.008000000379979609 -0.005499999970197677
v 0.0015000000130385165 0.007933012209832667 -0.00575000001117587
v 0.0015000000130385165 0.007750000339001416 -0.005933012813329695
v 0.0 -0.007499999832361936 -0.0060000000521540624
v 0.0 -0.007499999832361936 0.0060000000521540624
v 0.0 0.007499999832361936 -0.0060000000521540624
v 0.0 0.007499999832361936 0.0060000000521540624
v 0.0 -0.007933013141155241 0.005749999545514583
v 0.0 -0.007749999873340129 0.005933012813329695
v 0.0 -0.008000000379979609 0.005499999970197677
v 0.0 -0.008000000379979609 -0.005499999970197677
v 0.0 -0.007933013141155241 -0.00575000001117587
v 0.0 -0.007749999873340129 -0.005933012813329695
v 0.0 0.007933012209832667 -0.00575000001117587
v 0.0 0.007750000339001416 -0.005933012813329695
v 0.0 0.008000000379979609 -0.005499999970197677
v 0.0 0.008000000379979609 0.005499999970197677
v 0.0 0.007933012209832667 0.005749999545514583
v 0.0 0.007750000339001416 0.005933012813329695
v 0.0015000000130385165 -0.008000000379979609 -0.005499999970197677
v 0.0 -0.008000000379979609 -0.005499999970197677
v 0.0 -0.007933013141155241 -0.00575000001117587
v 0.0015000000130385165 -0.007933013141155241 -0.00575000001117587
v 0.0015000000130385165 -0.007933013141155241 -0.00575000001117587
v 0.0 -0.007933013141155241 -0.00575000001117587
v 0.0 -0.007749999873340129 -0.005933012813329695
v 0.0015000000130385165 -0.007749999873340129 -0.005933012813329695
v 0.0015000000130385165 -0.007749999873340129 -0.005933012813329695
v 0.0 -0.007749999873340129 -0.005933012813329695
v 0.0 -0.007499999832361936 -0.0060000000521540624
v 0.0015000000130385165 -0.007499999832361936 -0.0060000000521540624
v 0.0015000000130385165 0.007499999832361936 -0.0060000000521540624
v 0.0 0.007499999832361936 -0.0060000000521540624
v 0.0 0.007750000339001416 -0.005933012813329695
v 0.0015000000130385165 0.007750000339001416 -0.005933012813329695
v 0.0015000000130385165 0.007750000339001416 -0.005933012813329695
v 0.0 0.007750000339001416 -0.005933012813329695
v 0.0 0.007933012209832667 -0.00575000001117587
v 0.0015000000130385165 0.007933012209832667 -0.00575000001117587
v 0.0015000000130385165 0.007933012209832667 -0.00575000001117587
v 0.0 0.007933012209832667 -0.00575000001117587
v 0.0 0.008000000379979609 -0.005499999970197677
v 0.0015000000130385165 0.008000000379979609 -0.005499999970197677
v 0.0015000000130385165 0.008000000379979609 0.005499999970197677
v 0.0 0.008000000379979609 0.005499999970197677
v 0.0 0.007933012209832667 0.005749999545514583
v 0.0015000000130385165 0.007933012209832667 0.005749999545514583
v 0.0015000000130385165 0.007933012209832667 0.005749999545514583
v 0.0 0.007933012209832667 0.005749999545514583
v 0.0 0.007750000339001416 0.005933012813329695
v 0.0015000000130385165 0.007750000339001416 0.005933012813329695
v 0.0015000000130385165 0.007750000339001416 0.005933012813329695
v 0.0 0.007750000339001416 0.005933012813329695
v 0.0 0.007499999832361936 0.0060000000521540624
v 0.0015000000130385165 0.007499999832361936 0.0060000000521540624
v 0.0015000000130385165 -0.007499999832361936 0.0060000000521540624
v 0.0 -0.007499999832361936 0.0060000000521540624
v 0.0 -0.007749999873340129 0.005933012813329695
v 0.0015000000130385165 -0.007749999873340129 0.005933012813329695
v 0.0015000000130385165 -0.007749999873340129 0.005933012813329695
v 0.0 -0.007749999873340129 0.005933012813329695
v 0.0 -0.007933013141155241 0.005749999545514583
v 0.0015000000130385165 -0.007933013141155241 0.005749999545514583
v 0.0015000000130385165 -0.007933013141155241 0.005749999545514583
v 0.0 -0.007933013141155241 0.005749999545514583
v 0.0 -0.008000000379979609 0.005499999970197677
v 0.0015000000130385165 -0.008000000379979609 0.005499999970197677
f 1 2 3
f 3 2 4
f 5 6 7
f 7 6 8
f 9 10 11
f 11 10 12
f 13 14 15
f 15 14 16
f 17 18 19
f 19 18 20
f 21 22 23
f 23 22 18
f 23 18 24
f 24 18 17
f 24 17 25
f 25 17 26
f 27 28 29
f 29 28 19
f 29 19 30
f 30 19 20
f 30 20 31
f 31 20 32
f 33 34 35
f 35 34 36
f 37 38 39
f 39 38 34
f 39 34 40
f 40 34 33
f 40 33 41
f 41 33 42
f 43 44 45
f 45 44 35
f 45 35 46
f 46 35 36
f 46 36 47
f 47 36 48
f 49 50 51
f 49 51 52
f 53 54 55
f 53 55 56
f 57 58 59
f 57 59 60
f 61 62 63
f 61 63 64
f 65 66 67
f 65 67 68
f 69 70 71
f 69 71 72
f 73 74 75
f 73 75 76
f 77 78 79
f 77 79 80
f 81 82 83
f 81 83 84
f 85 86 87
f 85 87 88
f 89 90 91
f 89 91 92
f 93 94 95
f 93 95 96
